name C:/MyDriveSym/Projects/mobilecap/Data\Session20210827_0002\mocap\ForceDataProcessed\walking1_forces.mot
datacolumns 19
datarows 17
range 0.64450000 0.65250000
endheader 
time	R_ground_force_vx	R_ground_force_vy	R_ground_force_vz	R_ground_force_px	R_ground_force_py	R_ground_force_pz	R_ground_torque_x	R_ground_torque_y	R_ground_torque_z	L_ground_force_vx	L_ground_force_vy	L_ground_force_vz	L_ground_force_px	L_ground_force_py	L_ground_force_pz	L_ground_torque_x	L_ground_torque_y	L_ground_torque_z	
          0.64450000	         31.81068500	        134.39927600	          1.08175600	          0.42600200	          0.00600000	         -0.17788300	          0.00000000	         -0.65640800	          0.00000000	        -71.67375500	        538.20556500	         10.73209700	          0.89667700	          0.00600000	         -0.28967400	          0.00000000	          0.55549900	          0.00000000	
          0.64500000	         31.45671400	        132.56047200	          1.09358600	          0.42621600	          0.00600000	         -0.17783400	          0.00000000	         -0.64515900	          0.00000000	        -71.96341400	        539.78696600	         10.88878600	          0.89684000	          0.00600000	         -0.28970300	          0.00000000	          0.55649800	          0.00000000	
          0.64550000	         31.10410700	        130.73388600	          1.10498900	          0.42643300	          0.00600000	         -0.17778400	          0.00000000	         -0.63399800	          0.00000000	        -72.24987000	        541.35672400	         11.04526500	          0.89700300	          0.00600000	         -0.28973100	          0.00000000	          0.55750500	          0.00000000	
          0.64600000	         30.75288800	        128.91956200	          1.11597200	          0.42665300	          0.00600000	         -0.17773300	          0.00000000	         -0.62292600	          0.00000000	        -72.53310800	        542.91480400	         11.20151900	          0.89716600	          0.00600000	         -0.28975900	          0.00000000	          0.55852200	          0.00000000	
          0.64650000	         30.40308100	        127.11753700	          1.12654300	          0.42687600	          0.00600000	         -0.17768200	          0.00000000	         -0.61194300	          0.00000000	        -72.81311500	        544.46117300	         11.35752900	          0.89732800	          0.00600000	         -0.28978700	          0.00000000	          0.55954800	          0.00000000	
          0.64700000	         30.05471100	        125.32785000	          1.13670700	          0.42710100	          0.00600000	         -0.17763000	          0.00000000	         -0.60104900	          0.00000000	        -73.08987500	        545.99580000	         11.51328000	          0.89749000	          0.00600000	         -0.28981500	          0.00000000	          0.56058300	          0.00000000	
          0.64750000	         29.70780000	        123.55053700	          1.14647100	          0.42733000	          0.00600000	         -0.17757700	          0.00000000	         -0.59024400	          0.00000000	        -73.36337500	        547.51865400	         11.66875400	          0.89765100	          0.00600000	         -0.28984400	          0.00000000	          0.56162800	          0.00000000	
          0.64800000	         29.36237100	        121.78563200	          1.15584200	          0.42756200	          0.00600000	         -0.17752300	          0.00000000	         -0.57952700	          0.00000000	        -73.63360300	        549.02970600	         11.82393600	          0.89781300	          0.00600000	         -0.28987200	          0.00000000	          0.56268200	          0.00000000	
          0.64850000	         29.01844700	        120.03316700	          1.16482600	          0.42779700	          0.00600000	         -0.17746900	          0.00000000	         -0.56890000	          0.00000000	        -73.90054500	        550.52892800	         11.97880800	          0.89797300	          0.00600000	         -0.28990000	          0.00000000	          0.56374700	          0.00000000	
          0.64900000	         28.67604900	        118.29317400	          1.17343000	          0.42803600	          0.00600000	         -0.17741400	          0.00000000	         -0.55836200	          0.00000000	        -74.16418900	        552.01629400	         12.13335400	          0.89813400	          0.00600000	         -0.28992700	          0.00000000	          0.56482300	          0.00000000	
          0.64950000	         28.33520000	        116.56568000	          1.18166100	          0.42827800	          0.00600000	         -0.17735700	          0.00000000	         -0.54791300	          0.00000000	        -74.42452400	        553.49177800	         12.28755700	          0.89829400	          0.00600000	         -0.28995500	          0.00000000	          0.56590900	          0.00000000	
          0.65000000	         27.99592000	        114.85071300	          1.18952400	          0.42852300	          0.00600000	         -0.17730000	          0.00000000	         -0.53755200	          0.00000000	        -74.68153900	        554.95535600	         12.44140300	          0.89845300	          0.00600000	         -0.28998300	          0.00000000	          0.56700600	          0.00000000	
          0.65050000	         27.65823000	        113.14829900	          1.19702700	          0.42877200	          0.00600000	         -0.17724200	          0.00000000	         -0.52728100	          0.00000000	        -74.93522300	        556.40700500	         12.59487400	          0.89861300	          0.00600000	         -0.29001100	          0.00000000	          0.56811500	          0.00000000	
          0.65100000	         27.32214900	        111.45846100	          1.20417500	          0.42902500	          0.00600000	         -0.17718300	          0.00000000	         -0.51709900	          0.00000000	        -75.18556600	        557.84670300	         12.74795500	          0.89877200	          0.00600000	         -0.29003800	          0.00000000	          0.56923500	          0.00000000	
          0.65150000	         26.98769800	        109.78122100	          1.21097500	          0.42928200	          0.00600000	         -0.17712300	          0.00000000	         -0.50700600	          0.00000000	        -75.43255800	        559.27442900	         12.90063000	          0.89893000	          0.00600000	         -0.29006600	          0.00000000	          0.57036700	          0.00000000	
          0.65200000	         26.65489700	        108.11660000	          1.21743300	          0.42954300	          0.00600000	         -0.17706200	          0.00000000	         -0.49700200	          0.00000000	        -75.67618900	        560.69016400	         13.05288300	          0.89908900	          0.00600000	         -0.29009300	          0.00000000	          0.57151100	          0.00000000	
          0.65250000	         26.32376300	        106.46461600	          1.22355600	          0.42980800	          0.00600000	         -0.17700000	          0.00000000	         -0.48708700	          0.00000000	        -75.91645200	        562.09389000	         13.20469900	          0.89924700	          0.00600000	         -0.29012100	          0.00000000	          0.57266800	          0.00000000	
